<svg xmlns="http://www.w3.org/2000/svg"  role="img" viewBox="0 0 24 24" class="e-91000-logo e-91000-baseline" aria-label="Spotify" aria-hidden="false"
 height="42" data-encore-id="logoSpotify" style="--encore-logo-fill-color: var(--decorative-base);">
 <title>Spotify</title>
<path d="M12 0C5.4 0 0 5.4 0 12c0 6.6 5.4 12 
      12 12s12-5.4 12-12C24 5.4 18.6 0 12 0zm5.5 
      17.3c-.2.3-.6.4-.9.2-2.5-1.5-5.6-1.8-9.3-.9-.3.1-.7-.1-.8-.4-.1-.3.1-.7.4-.8 
      4-.9 7.5-.5 10.3 1.1.3.2.4.6.3.8zm1.2-2.6c-.3.4-.7.5-1.1.3-2.9-1.8-7.4-2.3-10.8-1.2-.4.1-.8-.1-1-.5-.1-.4.1-.8.5-1 
      3.9-1.2 9-0.6 12.4 1.4.3.1.4.6.2 1zm.1-2.9c-3.4-2-9.1-2.2-12.4-1.2-.5.2-1-.1-1.2-.5-.2-.5.1-1 .6-1.2 
      3.8-1.2 10.2-1 14.1 1.3.4.2.6.8.3 1.2-.2.4-.8.6-1.4.4z"/></svg>